<svg width="31" height="24" viewBox="0 0 31 24" fill="none" xmlns="http://www.w3.org/2000/svg">
<path fill-rule="evenodd" clip-rule="evenodd" d="M27.3389 3.27507C28.3786 4.25544 29.1894 5.45294 29.7137 6.78235L29.7148 6.77791C30.2871 8.18289 30.5733 9.80971 30.5733 11.6584C30.5733 13.4856 30.2993 15.1357 29.7514 16.6087C29.2546 17.9989 28.4699 19.2685 27.4487 20.3345C26.4348 21.3633 25.2061 22.1553 23.8504 22.6538C22.4388 23.1899 20.8682 23.458 19.1386 23.458C17.409 23.458 15.8443 23.1899 14.4445 22.6538C13.1002 22.1577 11.8834 21.368 10.8828 20.3423C10.5886 20.0369 10.3154 19.7119 10.0653 19.3695C10.3556 19.2966 10.6415 19.2074 10.9216 19.1022C11.8267 18.7676 12.6467 18.2374 13.3231 17.5493C14.0047 16.8379 14.5283 15.9905 14.8593 15.0625C15.2383 14.0031 15.4243 12.8843 15.4083 11.7593C15.4076 10.5251 15.2165 9.44031 14.8349 8.50493C14.4853 7.61761 13.9441 6.81844 13.2499 6.16452C12.5553 5.52705 11.7329 5.04494 10.8374 4.7503C10.5347 4.64825 10.2266 4.56308 9.9145 4.49518C10.2357 4.05664 10.5962 3.64825 10.9915 3.27507C12.0192 2.32012 13.2403 1.59756 14.572 1.1565C16.0444 0.668262 17.5875 0.427632 19.1386 0.444392C20.6954 0.428912 22.2441 0.669482 23.7229 1.1565C25.0652 1.59748 26.2979 2.31974 27.3389 3.27507ZM8.65444 6.77789C8.09393 8.18287 7.81367 9.80969 7.81367 11.6584L7.81922 11.6573C7.81848 13.4845 8.08654 15.1346 8.62339 16.6076C8.97005 17.5895 9.4556 18.5166 10.0653 19.3606C9.3166 19.544 8.54797 19.6342 7.77707 19.6291C6.70894 19.644 5.64716 19.4624 4.6447 19.0933C3.74695 18.7585 2.93499 18.228 2.26769 17.5404C1.59368 16.8276 1.07841 15.9801 0.755848 15.0536C0.385668 13.9923 0.204348 12.8743 0.220108 11.7504C0.219368 10.5163 0.406088 9.43149 0.780258 8.49603C1.12119 7.61019 1.65418 6.8109 2.3409 6.15563C3.02665 5.51832 3.84149 5.036 4.73011 4.7414C5.71241 4.41518 6.74208 4.25438 7.77707 4.26556C8.49543 4.26279 9.212 4.33717 9.9145 4.4874C9.3982 5.19381 8.97469 5.96361 8.65444 6.77789Z" fill="black"/>
</svg>
