<svg width="20" height="16" viewBox="0 0 20 16" fill="none" xmlns="http://www.w3.org/2000/svg">
<path d="M19.4333 3.36666C19.4927 3.31737 19.5371 3.2526 19.5617 3.17955C19.5864 3.1065 19.5903 3.02803 19.5731 2.95288C19.5558 2.87774 19.518 2.80886 19.4639 2.75391C19.4098 2.69896 19.3416 2.66011 19.2667 2.64166L18.6083 2.475C18.5485 2.46001 18.4927 2.43191 18.445 2.39274C18.3973 2.35356 18.359 2.3043 18.3327 2.24848C18.3063 2.19266 18.2927 2.1317 18.2928 2.06999C18.293 2.00828 18.3068 1.94737 18.3333 1.89166L18.7 1.15C18.7347 1.07813 18.7479 0.997823 18.7382 0.918631C18.7286 0.83944 18.6964 0.764681 18.6455 0.703248C18.5946 0.641823 18.5272 0.59629 18.4511 0.572081C18.3751 0.547865 18.2937 0.54599 18.2167 0.566665L16.55 1.03333C16.4879 1.05144 16.4224 1.05485 16.3588 1.04327C16.2952 1.03171 16.2351 1.00547 16.1833 0.966665C15.4621 0.42574 14.5849 0.133331 13.6833 0.133331C12.5782 0.133331 11.5185 0.572315 10.7371 1.35371C9.95565 2.13512 9.51665 3.19493 9.51665 4.3V4.6C9.51707 4.65118 9.49857 4.70071 9.46474 4.73913C9.4309 4.77756 9.38415 4.80219 9.33332 4.80833C6.99166 5.08333 4.74999 3.89166 2.33333 1.10833C2.28083 1.05043 2.21338 1.00813 2.1384 0.986073C2.06342 0.964023 1.98381 0.963073 1.90833 0.983331C1.84033 1.01459 1.78199 1.06358 1.73947 1.12517C1.69694 1.18676 1.67179 1.25866 1.66666 1.33333C1.33288 2.70445 1.46783 4.14785 2.04999 5.43333C2.06722 5.46742 2.07473 5.5056 2.07173 5.54368C2.06872 5.58176 2.0553 5.61828 2.03293 5.64925C2.01057 5.68021 1.98012 5.70444 1.94492 5.71926C1.90971 5.7341 1.87111 5.73896 1.83333 5.73333L0.899993 5.55C0.83371 5.53934 0.765836 5.54486 0.702145 5.56607C0.638455 5.5873 0.580834 5.62359 0.534189 5.67187C0.487545 5.72016 0.453256 5.77899 0.434244 5.84338C0.415231 5.90776 0.412058 5.97579 0.424993 6.04166C0.496942 6.68116 0.711805 7.29633 1.05368 7.84166C1.39555 8.38691 1.85568 8.84833 2.39999 9.19166C2.43522 9.20875 2.46492 9.23533 2.48571 9.2685C2.50649 9.30166 2.51752 9.34 2.51752 9.37916C2.51752 9.41833 2.50649 9.45667 2.48571 9.48983C2.46492 9.523 2.43522 9.54958 2.39999 9.56666L1.95833 9.74166C1.90469 9.76316 1.85611 9.79558 1.81568 9.83692C1.77525 9.87817 1.74384 9.92741 1.72347 9.9815C1.70309 10.0356 1.69418 10.0932 1.69732 10.151C1.70045 10.2087 1.71555 10.2651 1.74166 10.3167C1.9859 10.8511 2.35613 11.3183 2.82058 11.6782C3.28503 12.0382 3.82985 12.2802 4.40833 12.3833C4.44854 12.3979 4.48329 12.4246 4.50785 12.4596C4.53241 12.4947 4.54558 12.5364 4.54558 12.5792C4.54558 12.6219 4.53241 12.6637 4.50785 12.6987C4.48329 12.7337 4.44854 12.7604 4.40833 12.775C3.27529 13.2436 2.05938 13.4788 0.833326 13.4667C0.72282 13.4446 0.608059 13.4672 0.51429 13.5297C0.420523 13.5922 0.355428 13.6895 0.333326 13.8C0.311225 13.9105 0.333928 14.0252 0.39644 14.119C0.458952 14.2128 0.556153 14.2779 0.66666 14.3C2.78961 15.3068 5.10098 15.8549 7.44999 15.9083C9.51623 15.9398 11.5457 15.36 13.2833 14.2417C14.7127 13.2875 15.8837 11.9946 16.6922 10.4781C17.5006 8.9615 17.9212 7.2685 17.9167 5.55V4.825C17.9172 4.76449 17.9308 4.70481 17.9567 4.65013C17.9827 4.59544 18.0202 4.54706 18.0667 4.50833L19.4333 3.36666Z" fill="white"/>
</svg>
